<?xml version="1.0" encoding="UTF-8"?>
<svg width="30px" height="30px" viewBox="0 0 30 30" version="1.1" xmlns="http://www.w3.org/2000/svg" xmlns:xlink="http://www.w3.org/1999/xlink">
    <!-- Generator: sketchtool 61.2 (101010) - https://sketch.com -->
    <title>1F567971-4E3F-48E5-B5BA-3F58BD3F2534</title>
    <desc>Created with sketchtool.</desc>
    <g id="Asset-Artboard-Page" stroke="none" stroke-width="1" fill="none" fill-rule="evenodd">
        <g id="menu-/-about-us" fill="#EBE7E7">
            <g id="Group-3" transform="translate(16.839479, 13.377765) rotate(49.000000) translate(-16.839479, -13.377765) translate(10.339479, -1.122235)">
                <path d="M10.4406836,15.0362512 C10.3313655,15.9534899 10.2322907,17.3821134 10.2112878,18.2754227 C10.2099106,20.245644 10.326287,23.5788979 10.3411783,24.2662244 C10.3476341,24.5754137 10.2630202,24.7616848 9.7906285,24.7616848 C9.09848165,24.7616848 8.79471518,24.2235301 8.97323931,24.0622214 C9.3736705,23.7002667 9.3551639,23.1076251 9.3551639,23.1076251 C9.3551639,23.1076251 9.3574019,23.1100353 9.3592956,23.1122733 C9.36833371,21.8713842 9.39742781,20.1056824 9.39742781,20.1056824 L9.44898805,18.7278445 L9.318495,18.7003859 C9.318495,18.7003859 7.42126721,18.6721525 7.08367239,18.6721525 C7.08367239,18.6721525 6.84127896,18.6639752 6.79410865,16.2526943 C6.75847269,14.4432653 7.23275812,11.6729563 7.23275812,11.6729563 C7.36032454,11.6906882 10.5605892,12.0615949 10.8083194,12.104031 C10.9084272,12.1213325 10.7909318,12.1032563 10.4406836,15.0362512 L10.4406836,15.0362512 Z M4.96720594,23.7634474 C4.96720594,22.8891612 5.58222761,21.7466584 5.58222761,20.6775794 C5.58222761,19.6090169 4.2444156,19.8994414 4.2444156,19.8994414 C4.2444156,19.8994414 4.18433371,15.5075239 4.78282855,12.7874841 C5.13040833,11.2090862 6.06322706,10.7946245 6.06322706,10.7946245 L6.08965276,23.7849667 C6.08965276,24.513266 4.96720594,24.6373032 4.96720594,23.7634474 L4.96720594,23.7634474 Z M3.28336355,20.152078 C3.25504414,20.2236943 2.84505839,20.294794 2.84505839,20.7080507 C2.84505839,21.120877 3.06911737,22.4041161 3.06911737,23.1879352 C3.06911737,23.9664175 3.01755712,24.47763 2.474496,24.4846023 L2.46373635,24.4846023 C1.92101954,24.47763 1.86954536,23.9664175 1.86954536,23.1879352 C1.86954536,22.4041161 2.09334611,21.120877 2.09334611,20.7080507 C2.09334611,20.294794 1.68336036,20.2236943 1.65538527,20.152078 C1.62706586,20.0808922 2.05099612,20.1950306 2.05099612,20.109728 C2.05099612,20.0240812 2.09334611,19.9381762 1.96577969,19.8669903 C1.96577969,19.8669903 2.18364111,12.5561946 2.40494561,11.2046963 C2.42173067,11.0659398 2.4423892,10.9904501 2.46631867,10.9904501 C2.46752375,10.9904501 2.46872883,10.9910527 2.46890098,10.9915691 C2.47001999,10.9910527 2.47131114,10.9904501 2.47191368,10.9904501 C2.4960153,10.9904501 2.51658776,11.0659398 2.53354497,11.2046963 C2.75433301,12.5561946 2.97219443,19.8669903 2.97219443,19.8669903 C2.84505839,19.9381762 2.88775269,20.0240812 2.88775269,20.109728 C2.88775269,20.1950306 3.31194118,20.0808922 3.28336355,20.152078 L3.28336355,20.152078 Z M9.56777461,7.59229402 C8.902656,7.10449447 7.7714293,6.40132973 7.67003035,5.57455813 C7.52111677,4.35708206 8.14956649,3.15002134 8.14956649,1.92763887 C8.14956649,1.10129765 7.62793859,2.58231631e-05 6.24794875,2.58231631e-05 C4.86830322,2.58231631e-05 4.34684748,1.10129765 4.34684748,1.92763887 C4.34684748,3.15002134 4.97555543,4.35708206 4.82603931,5.57455813 C4.72498467,6.40132973 3.59410228,7.10449447 2.92863936,7.59229402 C1.68198312,8.50531499 0.158416498,8.49352241 -5.16463263e-05,10.360451 L-5.16463263e-05,27.6937328 C-5.16463263e-05,28.6513418 0.890847482,28.6133323 0.890847482,28.6133323 L11.6053083,28.6133323 C11.6053083,28.6133323 12.4961213,28.6513418 12.4961213,27.6937328 L12.4961213,10.360451 C12.3379114,8.49352241 10.8141726,8.50531499 9.56777461,7.59229402 L9.56777461,7.59229402 Z" id="Fill-1"></path>
            </g>
        </g>
    </g>
</svg>