<?xml version="1.0" encoding="UTF-8"?>
<svg width="30px" height="30px" viewBox="0 0 30 30" version="1.1" xmlns="http://www.w3.org/2000/svg" xmlns:xlink="http://www.w3.org/1999/xlink">
    <!-- Generator: sketchtool 61.2 (101010) - https://sketch.com -->
    <title>807A6956-F75A-4910-9CBC-647338DC8F3F</title>
    <desc>Created with sketchtool.</desc>
    <g id="Asset-Artboard-Page" stroke="none" stroke-width="1" fill="none" fill-rule="evenodd">
        <g id="menu-/-coupons">
            <rect id="Rectangle-7-Copy-3" x="0.0323020741" y="0" width="30" height="30"></rect>
            <g id="noun_Coupon_1487802" transform="translate(3.000000, 3.452361)" fill="#EBE7E7" fill-rule="nonzero">
                <g id="Group" transform="translate(0.261610, 0.000000)">
                    <path d="M20.5127747,0.177500601 C21.232196,0.177500601 21.9063819,0.459902209 22.4118935,0.972314176 C22.916894,1.48523728 23.189073,2.16402341 23.1783392,2.88370026 L23.1783392,2.88370026 L23.0842905,9.19313999 C23.0653785,10.4236954 22.5759676,11.5806475 21.7060173,12.4505978 L21.7060173,12.4505978 L11.7590915,22.3975236 C11.2553688,22.9012463 10.5860387,23.1785366 9.87377326,23.1785366 C9.16150785,23.1785366 8.4921777,22.9012463 7.98871058,22.3977792 L7.98871058,22.3977792 L0.958571729,15.3676403 C-0.0813306628,14.3279935 -0.0813306628,12.6363951 0.958571729,11.5970038 L0.958571729,11.5970038 L10.9054975,1.65007804 C11.7754478,0.779872175 12.9323999,0.290461244 14.1629553,0.271804848 L14.1629553,0.271804848 Z M16.2005916,3.83313191 C14.9598552,4.25096128 14.8087733,5.29727564 14.7441148,5.57175467 C14.5422169,6.43097114 14.7936949,7.31599989 15.4170229,7.93932797 C15.9092451,8.43206127 16.5563409,8.67842792 17.2031812,8.67842792 C17.850277,8.67842792 18.4973728,8.43206127 18.9898505,7.93932797 C19.974806,6.95437249 19.974806,5.35120029 18.9898505,4.36624481 C18.252284,3.6291894 17.1885499,3.50042788 16.2005916,3.83313191 Z" id="Combined-Shape"></path>
                </g>
            </g>
        </g>
    </g>
</svg>