<?xml version="1.0" encoding="UTF-8"?>
<svg width="30px" height="30px" viewBox="0 0 30 30" version="1.1" xmlns="http://www.w3.org/2000/svg" xmlns:xlink="http://www.w3.org/1999/xlink">
    <!-- Generator: sketchtool 61.2 (101010) - https://sketch.com -->
    <title>E69F88BF-CFAD-4DA7-BD98-E5CCA3B663FF</title>
    <desc>Created with sketchtool.</desc>
    <g id="Asset-Artboard-Page" stroke="none" stroke-width="1" fill="none" fill-rule="evenodd">
        <g id="menu-/-dashboard">
            <rect id="Rectangle-7" x="0.0323020741" y="0" width="30" height="30"></rect>
            <g id="noun_donut-chart_2795661" transform="translate(14.631807, 14.909986) rotate(-180.000000) translate(-14.631807, -14.909986) translate(1.631807, 1.909986)" fill="#EBE7E7" fill-rule="nonzero">
                <g id="Group" transform="translate(0.000000, 0.000000)">
                    <path d="M18.823917,8.39421617 C19.4654962,9.31488486 19.8918677,10.3680225 20.0714889,11.4757187 L25.0617763,11.4757187 C24.8136698,9.04080275 23.8548317,6.73264954 22.3046425,4.83863635 L18.823917,8.39421617 Z" id="Shape"></path>
                    <path d="M13.9708624,20.0964403 L13.9708624,25.0867278 C19.8576371,24.4976295 24.5211699,19.8549393 25.1366307,13.9708624 L20.1463432,13.9708624 C19.6071095,17.1219451 17.1262164,19.5827905 13.9708624,20.0964403 Z" id="Shape"></path>
                    <path d="M12.7232906,5.23785934 C14.2749664,5.23961044 15.7877493,5.72352661 17.0523649,6.62266412 L20.6079448,3.06708429 C16.4741941,-0.31592315 10.6453896,-0.691912616 6.1112609,2.13196965 C1.5771322,4.95585191 -0.656153488,10.352959 0.55690808,15.554989 C1.76996965,20.7570189 6.16018833,24.6095908 11.4757187,25.1366307 L11.4757187,20.1463432 C7.47871308,19.6622371 4.58064827,16.1031965 4.91639656,12.0910044 C5.25214486,8.07881223 8.70141665,5.05092947 12.7232906,5.23785934 Z" id="Shape"></path>
                </g>
            </g>
        </g>
    </g>
</svg>