<?xml version="1.0" encoding="UTF-8"?>
<svg width="30px" height="30px" viewBox="0 0 30 30" version="1.1" xmlns="http://www.w3.org/2000/svg" xmlns:xlink="http://www.w3.org/1999/xlink">
    <!-- Generator: sketchtool 61.2 (101010) - https://sketch.com -->
    <title>C55EDDDD-A071-4A48-86DC-9F49486F47F3</title>
    <desc>Created with sketchtool.</desc>
    <g id="Asset-Artboard-Page" stroke="none" stroke-width="1" fill="none" fill-rule="evenodd">
        <g id="menu-/-faqs">
            <rect id="Rectangle-7-Copy-8" x="0" y="-0.0883420054" width="30" height="30"></rect>
            <path d="M15,3.41165799 C21.3512746,3.41165799 26.5,8.56038337 26.5,14.911658 C26.5,21.2629326 21.3512746,26.411658 15,26.411658 C8.64872538,26.411658 3.5,21.2629326 3.5,14.911658 C3.5,8.56038337 8.64872538,3.41165799 15,3.41165799 Z M15.5716428,18.6997145 L12.5683243,18.6997145 L12.5683243,21.8774193 L15.5716428,21.8774193 L15.5716428,18.6997145 Z M15.3972566,7.94589672 C14.467192,7.94589672 13.6404803,8.16549201 12.9170968,8.60468917 C12.1937132,9.04388633 11.6641011,9.65746139 11.3282444,10.4454328 L11.3282444,10.4454328 L13.6727705,12.1117901 C13.7502759,12.0213672 13.8310094,11.9083402 13.9149736,11.7727058 C13.9989377,11.6370714 14.1022767,11.5046683 14.2249936,11.3754927 C14.3477104,11.246317 14.4930308,11.1365194 14.6609591,11.0460965 C14.8288875,10.9556735 15.0291067,10.9104627 15.2616228,10.9104627 C15.5716444,10.9104627 15.8429091,10.997655 16.0754253,11.1720421 C16.3079414,11.3464292 16.4241977,11.5821712 16.4241977,11.8792751 C16.4241977,12.150544 16.3273175,12.3992033 16.133554,12.6252607 C15.9397906,12.8513181 15.7105072,13.0547666 15.4456972,13.2356125 C15.1808871,13.4164584 14.9160811,13.5714668 14.651271,13.7006425 C14.386461,13.8298181 14.1830124,13.9331571 14.0409192,14.0106624 C13.692145,14.1915083 13.4144215,14.3917276 13.2077405,14.6113261 C13.0010595,14.8309247 12.8460511,15.060208 12.7427106,15.299183 C12.63937,15.5381579 12.5747832,15.7900466 12.5489481,16.0548566 C12.5231129,16.3196667 12.5101956,16.5877021 12.5101956,16.858971 L12.5101956,16.858971 L15.5135141,16.858971 C15.5135141,16.6522899 15.5942476,16.4714468 15.7557172,16.316436 C15.9171867,16.1614252 16.1238646,16.0128755 16.3757571,15.8707823 C16.6276496,15.7286891 16.9021437,15.586598 17.1992477,15.4445048 C17.4963516,15.3024116 17.7869924,15.1344858 18.0711788,14.9407224 C18.6524692,14.5531955 19.056137,14.1043169 19.2821944,13.5940731 C19.5082517,13.0838294 19.6212787,12.5186944 19.6212787,11.8986514 C19.6212787,11.1752678 19.4953344,10.5616928 19.2434419,10.0579078 C18.9915494,9.55412282 18.6621565,9.14722567 18.2552532,8.83720415 C17.84835,8.52718262 17.3930127,8.30112865 16.8892277,8.15903546 C16.3854427,8.01694226 15.888124,7.94589672 15.3972566,7.94589672 Z" id="Combined-Shape" fill="#EBE7E7"></path>
        </g>
    </g>
</svg>