<?xml version="1.0" encoding="UTF-8"?>
<svg width="30px" height="30px" viewBox="0 0 30 30" version="1.1" xmlns="http://www.w3.org/2000/svg" xmlns:xlink="http://www.w3.org/1999/xlink">
    <!-- Generator: sketchtool 61.2 (101010) - https://sketch.com -->
    <title>99362055-CBBF-4434-85DA-AE4DA0E46DD2</title>
    <desc>Created with sketchtool.</desc>
    <g id="Asset-Artboard-Page" stroke="none" stroke-width="1" fill="none" fill-rule="evenodd">
        <g id="menu-/-locations">
            <rect id="Rectangle-7-Copy-7" x="0" y="0" width="30" height="30"></rect>
            <g id="noun_Store_2786311" transform="translate(3.000000, 6.000000)" fill="#EBE7E7" fill-rule="nonzero">
                <path d="M20.8135163,10.7031454 C20.6550905,10.7237272 20.4954949,10.7339936 20.3357378,10.7338797 C20.2379469,10.7338797 20.137362,10.7338797 20.0395711,10.7338797 L20.0395711,16.7214773 C20.0395711,16.9313386 19.8694449,17.1014648 19.6595835,17.1014648 L4.2784707,17.1014648 C4.06860939,17.1014648 3.89848318,16.9313386 3.89848318,16.7214773 L3.89848318,10.7199096 C3.80069227,10.7199096 3.70290136,10.7199096 3.60231642,10.7199096 C3.44349067,10.719934 3.2848302,10.7096678 3.12733201,10.6891753 C2.71848844,10.635564 2.3200576,10.5206501 1.94545904,10.3483041 L1.94545904,16.7214773 C1.94699861,18.0093258 2.99062219,19.0529494 4.2784707,19.054489 L19.6623776,19.054489 C20.9502261,19.0529494 21.9938497,18.0093258 21.9953892,16.7214773 L21.9953892,10.3622742 C21.6207907,10.5346203 21.2223598,10.6495341 20.8135163,10.7031454 Z" id="Shape"></path>
                <path d="M23.4482827,6.65739582 L22.6883077,0.854203928 L1.2525406,0.854203928 L0.492565544,6.65739582 C0.304172309,8.12886615 1.3386557,9.47656466 2.80881306,9.67494385 L3.25306318,9.73361839 C4.55328177,9.90141028 5.78603899,9.11060713 6.17561432,7.85882698 C6.38615048,9.16263281 7.50925345,10.1225903 8.82993897,10.127576 L9.27977715,10.127576 C10.219746,10.1280253 11.0921019,9.63891311 11.5820545,8.83673606 C11.6627183,8.69872262 11.8105668,8.61388563 11.9704241,8.61388563 C12.1302814,8.61388563 12.27813,8.69872262 12.3587937,8.83673606 C12.8460068,9.64319876 13.7188636,10.1368289 14.6610711,10.1387522 L15.1109093,10.1387522 C16.4315948,10.1337664 17.5546978,9.17380892 17.765234,7.87000308 C18.1546324,9.12062429 19.3857545,9.91113426 20.6849911,9.7447945 L21.1320352,9.67494385 C22.6021926,9.47656466 23.636676,8.12886615 23.4482827,6.65739582 Z" id="Shape"></path>
            </g>
        </g>
    </g>
</svg>