<?xml version="1.0" encoding="UTF-8"?>
<svg width="30px" height="30px" viewBox="0 0 30 30" version="1.1" xmlns="http://www.w3.org/2000/svg" xmlns:xlink="http://www.w3.org/1999/xlink">
    <!-- Generator: sketchtool 61.2 (101010) - https://sketch.com -->
    <title>47818265-6B5E-4574-BE5C-043A258EE55A</title>
    <desc>Created with sketchtool.</desc>
    <g id="Asset-Artboard-Page" stroke="none" stroke-width="1" fill="none" fill-rule="evenodd">
        <g id="menu-/-orders">
            <rect id="Rectangle-7-Copy" x="0.0323020741" y="0" width="30" height="30"></rect>
            <path d="M12.5105713,17.6992818 L20.4190931,17.6992818 C22.5540496,17.6992818 23.7686583,16.5003253 24.4396148,14.3611949 L26.4775279,7.29789053 C26.5046583,7.19041227 26.423267,7.08710792 26.3137018,7.08710792 L11.3220496,7.08710792 C11.0017018,7.08710792 9.92796264,4.45128183 7.69596264,3.52780357 C7.66570177,3.51319487 7.62500612,3.50067314 7.59161481,3.48606444 C7.44031046,3.42867314 7.28274525,3.37962966 7.11996264,3.338934 C7.01352786,3.31076009 6.91335394,3.28362966 6.78709307,3.25858618 C6.77665829,3.25649922 6.76831046,3.25649922 6.75891916,3.25441227 C6.75578872,3.25441227 6.75370177,3.25336879 6.75161481,3.25336879 C4.38918003,2.80258618 3.51787568,3.84606444 3.23509307,4.37510792 C3.23300612,4.37823835 3.23196264,4.38136879 3.22987568,4.38449922 C3.14431046,4.54728183 3.11404959,4.66102096 3.11404959,4.66102096 L3.12239742,4.66206444 C3.1088322,4.70276009 3.08900612,4.7361514 3.07752786,4.77789053 C2.76239742,5.93928183 3.4594409,6.55284705 4.23996264,6.68223835 C5.1874409,6.83980357 5.70604959,5.59702096 7.34326699,6.51319487 C8.18952786,7.12780357 9.14013655,8.4081514 9.35509307,11.1034557 C9.72448438,15.7417166 7.69700612,17.2944123 7.69700612,17.2944123 C9.34674525,18.7218905 11.2427452,23.232847 11.8250061,23.9799775 C11.6799626,24.2533688 11.5902235,24.5611949 11.5902235,24.8940644 C11.5902235,25.9782384 12.4688322,26.856847 13.5540496,26.856847 C14.6382235,26.856847 15.5178757,25.9782384 15.5178757,24.8940644 C15.5178757,24.2293688 15.1860496,23.645021 14.6820496,23.2891949 C15.6180496,23.2818905 17.687267,23.2766731 19.4924844,23.2745862 C18.9770061,23.6283253 18.6389192,24.221021 18.6389192,24.8940644 C18.6389192,25.9782384 19.5175279,26.856847 20.6017018,26.856847 C21.6869192,26.856847 22.5655279,25.9782384 22.5655279,24.8940644 C22.5655279,24.218934 22.2253539,23.6251949 21.7077887,23.2714557 C22.3015279,23.2704123 22.6907452,23.2704123 22.6907452,23.2704123 L22.6886583,23.2578905 C23.6309192,23.237021 24.3008322,22.0964992 24.3008322,21.3556297 C24.3008322,20.5792818 23.9742235,20.4978905 23.1415279,20.5771949 C22.3933539,20.6481514 22.4215279,20.7097166 19.9578757,20.8651949 C19.1001366,20.8964992 17.9293539,20.9194557 16.3359626,20.9194557 C13.6333539,20.9194557 12.4510931,19.997021 11.9293539,19.1392818 C11.4910931,17.7107601 12.5105713,17.6992818 12.5105713,17.6992818" id="Fill-1" fill="#EBE7E7"></path>
        </g>
    </g>
</svg>