<?xml version="1.0" encoding="UTF-8"?>
<svg width="30px" height="30px" viewBox="0 0 30 30" version="1.1" xmlns="http://www.w3.org/2000/svg" xmlns:xlink="http://www.w3.org/1999/xlink">
    <!-- Generator: sketchtool 61.2 (101010) - https://sketch.com -->
    <title>1D2A6627-ED79-4D30-B115-0EC77DB2833C</title>
    <desc>Created with sketchtool.</desc>
    <g id="Asset-Artboard-Page" stroke="none" stroke-width="1" fill="none" fill-rule="evenodd">
        <g id="menu-/-coupons-copy-menu-/-push">
            <rect id="Rectangle-7-Copy-2" x="0.0323020741" y="0" width="30" height="30"></rect>
            <path d="M25.1354167,22.5763158 C25.1354167,21.8065789 24.5247396,21.1894737 23.7630208,21.1894737 L23.4570313,21.1894737 L23,14.7144737 C23,10.5842105 20.5898438,7.13026316 16.8984375,6.29868421 C17.1119792,5.95921053 17.203125,5.58947368 17.203125,5.15789474 C17.203125,3.95526316 16.2578125,3 15.0677083,3 C13.8776042,3 12.9322917,3.95526316 12.9322917,5.15789474 C12.9322917,5.55789474 13.0546875,5.95921053 13.2369792,6.29868421 C9.54557292,7.16184211 7.13541667,10.6144737 7.13541667,14.7144737 L6.67838542,21.1894737 L6.37239583,21.1894737 C5.609375,21.1894737 5,21.8065789 5,22.5763158 C5,23.3473684 5.609375,23.9644737 6.37239583,23.9644737 L12.046875,23.9644737 C12.046875,24.0565789 12.0169271,24.1789474 12.0169271,24.2723684 C12.0169271,25.9684211 13.3893229,27.3552632 15.0677083,27.3552632 C16.7460938,27.3552632 18.1184896,25.9684211 18.1184896,24.2723684 C18.1184896,24.1789474 18.1184896,24.0565789 18.0872396,23.9644737 L23.7630208,23.9644737 C24.5247396,23.9644737 25.1354167,23.3473684 25.1354167,22.5763158" id="Fill-1" fill="#EBE7E7"></path>
        </g>
    </g>
</svg>