<?xml version="1.0" encoding="UTF-8"?>
<svg width="24px" height="24px" viewBox="0 0 24 24" version="1.1" xmlns="http://www.w3.org/2000/svg" xmlns:xlink="http://www.w3.org/1999/xlink">
    <!-- Generator: sketchtool 61.2 (101010) - https://sketch.com -->
    <title>703EDE59-CFD1-4A52-BD07-C72B92A6B474</title>
    <desc>Created with sketchtool.</desc>
    <defs>
        <polygon id="path-1" points="0 0.0004 18.172 0.0004 18.172 18.1724 0 18.1724"></polygon>
    </defs>
    <g id="Asset-Artboard-Page" stroke="none" stroke-width="1" fill="none" fill-rule="evenodd">
        <g id="search-Material/Icons-black/search">
            <g id="Group-3" transform="translate(3.000000, 3.000000)">
                <mask id="mask-2" fill="white">
                    <use xlink:href="#path-1"></use>
                </mask>
                <g id="Clip-2"></g>
                <path d="M9.6819,9.6819 C8.8679,10.4959 7.7429,10.9999 6.4999,10.9999 C4.0139,10.9999 1.9999,8.9859 1.9999,6.4999 C1.9999,5.2579 2.5039,4.1319 3.3179,3.3179 C4.1319,2.5039 5.2579,1.9999 6.4999,1.9999 C8.9859,1.9999 10.9999,4.0139 10.9999,6.4999 C10.9999,7.7429 10.4959,8.8679 9.6819,9.6819 M12.9979,6.3659 C12.9979,2.7759 10.0899,-0.0001 6.4999,-0.0001 C4.7049,-0.0001 3.0799,0.7269 1.9039,1.9039 C0.7269,3.0799 -0.0001,4.7049 -0.0001,6.4999 C-0.0001,10.0899 2.9439,12.9989 6.5339,12.9989 C8.1489,12.9989 10.3049,12.0589 10.7579,12.0209 C11.5329,11.9559 11.0849,13.1549 11.0849,13.1549 C11.0849,13.1549 11.7669,12.6969 13.4999,14.3239 C14.3369,15.1089 14.8949,16.2369 15.2679,16.8689 C15.7009,17.5999 15.8789,17.7789 15.8789,17.7789 C16.4039,18.3039 17.2539,18.3039 17.7789,17.7789 L17.7789,17.7789 L17.7789,17.7789 C18.3039,17.2539 18.3039,16.4039 17.7789,15.8789 C17.7789,15.8789 17.5999,15.7009 16.8689,15.2679 C16.2369,14.8949 15.1089,14.3369 14.3239,13.4999 C12.6969,11.7669 13.1549,11.0849 13.1549,11.0849 C13.1549,11.0849 11.9559,11.5329 12.0209,10.7579 C12.0589,10.3049 12.9979,7.9809 12.9979,6.3659" id="Fill-1" fill="#AB162B" mask="url(#mask-2)"></path>
            </g>
        </g>
    </g>
</svg>