<?xml version="1.0" encoding="UTF-8"?>
<svg width="30px" height="30px" viewBox="0 0 30 30" version="1.1" xmlns="http://www.w3.org/2000/svg" xmlns:xlink="http://www.w3.org/1999/xlink">
    <!-- Generator: sketchtool 61.2 (101010) - https://sketch.com -->
    <title>A4568F1B-78E6-4BCE-9DDC-AA4C52590424</title>
    <desc>Created with sketchtool.</desc>
    <g id="Asset-Artboard-Page" stroke="none" stroke-width="1" fill="none" fill-rule="evenodd">
        <g id="menu-/-settings">
            <rect id="Rectangle-7-Copy-6" x="0" y="0" width="30" height="30"></rect>
            <g id="noun_Settings_2799686" transform="translate(3.500000, 3.500000)" fill="#EBE7E7" fill-rule="nonzero">
                <path d="M22.1553137,13.9187169 C22.3978889,13.9187169 22.6057008,13.7448406 22.6483708,13.5060293 C22.7647261,12.8547938 22.8255022,12.1843231 22.8255022,11.4997931 C22.8255022,10.8152997 22.7647261,10.144886 22.6483883,9.49393341 C22.6057199,9.2551412 22.397927,9.08128385 22.1553518,9.08128385 L19.6899568,9.08128385 C19.3036389,9.08128385 18.9541944,8.8493052 18.8071016,8.49208564 C18.8006645,8.47644488 18.7941704,8.46084141 18.7876208,8.44525692 C18.6377993,8.08796276 18.7201634,7.67553915 18.9941152,7.40156836 L20.7337967,5.66188685 C20.9055644,5.49013818 20.9292039,5.2198191 20.7901114,5.02068411 C20.0188501,3.91652138 19.0554368,2.95632654 17.94862,2.18864101 C17.7495219,2.05054537 17.4800506,2.07450551 17.3087158,2.24584056 L15.5634629,3.99109325 C15.2905464,4.26402838 14.8800947,4.34678802 14.5234776,4.19911211 C14.5112425,4.19404889 14.4990089,4.18900468 14.4867373,4.18401713 C14.1277293,4.03747048 13.8938504,3.68740339 13.8938504,3.29963635 L13.8938504,0.840340267 C13.8938504,0.597482462 13.7195983,0.389426148 13.4804478,0.347171162 C12.8374947,0.23354384 12.1757057,0.174499888 11.5002047,0.174499888 C10.8066063,0.174499888 10.1273976,0.236743638 9.46810766,0.35622446 C9.22978557,0.39942053 9.05639912,0.60689341 9.05639912,0.849092533 L9.05639912,3.32047197 C9.05639912,3.70624407 8.82483431,4.05471102 8.46859375,4.20272583 C8.46140801,4.20571844 8.4542135,4.20873002 8.44702408,4.21174164 C8.08918376,4.36167607 7.6763083,4.28019631 7.4019617,4.0058497 L5.66226125,2.26614937 C5.49053087,2.09441918 5.22024982,2.07076003 5.02111482,2.2098157 C3.91661319,2.98107711 2.95636169,3.9445281 2.18863891,5.05138255 C2.05054326,5.25047991 2.0745034,5.51995155 2.24583845,5.69128641 L3.99116642,7.43659629 C4.26445909,7.70988857 4.34637168,8.12075045 4.19862044,8.47789399 C4.19698304,8.48182757 4.19536426,8.48576191 4.19375027,8.4897145 C4.04629555,8.84778072 3.69716981,9.08128381 3.30992958,9.08128381 L0.844648435,9.08128381 C0.602072878,9.08128381 0.39428003,9.25514112 0.351610928,9.49393337 C0.235273325,10.144886 0.174497703,10.8153187 0.174497703,11.4997931 C0.174497703,12.1843231 0.235273287,12.8547937 0.35162975,13.5060293 C0.394298852,13.7448405 0.6020917,13.9187168 0.844686078,13.9187168 L3.31000483,13.9187168 C3.69726372,13.9187168 4.04638942,14.1522199 4.19383978,14.5102862 C4.19544391,14.5142007 4.19705828,14.5181153 4.19867672,14.5220299 C4.3464283,14.8791939 4.26452008,15.290036 3.99122745,15.5633473 L2.24583841,17.3087128 C2.0745034,17.4800476 2.05054323,17.7495204 2.18863887,17.948617 C2.95636169,19.0554718 3.91661319,20.0189232 5.02111478,20.7901844 C5.22024978,20.9292214 5.49053083,20.9055804 5.66226121,20.7338507 L7.40196174,18.9941502 C7.67630834,18.7198036 8.08920208,18.6383052 8.44704241,18.7882583 C8.45421354,18.7912692 8.46140805,18.7942625 8.4686128,18.7972558 C8.82483435,18.9452889 9.05639915,19.2937566 9.05639915,19.6795276 L9.05639915,22.1509077 C9.05639915,22.3931071 9.22978561,22.6005798 9.46808869,22.6437747 C10.1273976,22.7632564 10.8066063,22.8255006 11.5002047,22.8255006 C12.1757057,22.8255006 12.8374947,22.7664559 13.4804479,22.6528293 C13.7195983,22.6105732 13.8938505,22.402517 13.8938505,22.1596596 L13.8938505,19.7003639 C13.8938505,19.3125779 14.1277162,18.9625294 14.4867373,18.8159835 C14.4989899,18.8109766 14.5112426,18.8059507 14.5234776,18.8008882 C14.8800948,18.6532119 15.2905275,18.7359708 15.5634629,19.0088873 L17.3087158,20.7541592 C17.4800506,20.925494 17.7495219,20.9494538 17.94862,20.8113585 C19.0554368,20.0436741 20.0188502,19.0834793 20.7901114,17.9793151 C20.929204,17.7801804 20.9055644,17.5098624 20.7337967,17.3381123 L18.9940582,15.5983562 C18.7201064,15.3244045 18.6377423,14.9119816 18.7875638,14.554686 C18.794096,14.5391213 18.8005695,14.523517 18.8070066,14.5079143 C18.9540994,14.1506947 19.3035644,13.9187168 19.6898823,13.9187168 L22.1553137,13.9187168 L22.1553137,13.9187169 Z M11.5003173,15.4902996 C9.29635831,15.4902996 7.50969745,13.7036198 7.50969745,11.4996797 C7.50969745,9.29636045 9.29635827,7.50969964 11.5003173,7.50969964 C13.7036183,7.50969964 15.4903025,9.29636045 15.4903025,11.4996797 C15.4903025,13.7036198 13.7036183,15.4902996 11.5003173,15.4902996 Z" id="Shape"></path>
            </g>
        </g>
    </g>
</svg>