<?xml version="1.0" encoding="UTF-8"?>
<svg width="30px" height="30px" viewBox="0 0 30 30" version="1.1" xmlns="http://www.w3.org/2000/svg" xmlns:xlink="http://www.w3.org/1999/xlink">
    <!-- Generator: sketchtool 61.2 (101010) - https://sketch.com -->
    <title>D90EC00C-6A5C-46EA-A9E8-8EDD4862B7E6</title>
    <desc>Created with sketchtool.</desc>
    <g id="Asset-Artboard-Page" stroke="none" stroke-width="1" fill="none" fill-rule="evenodd">
        <g id="menu-/-slider">
            <rect id="Rectangle-7-Copy-2" x="0.0323020741" y="0" width="30" height="30"></rect>
            <path d="M20.9806897,4 C21.5329744,4 21.9806897,4.44771525 21.9806897,5 L21.9806897,25.0779565 C21.9806897,25.6302412 21.5329744,26.0779565 20.9806897,26.0779565 L9.01931031,26.0779565 C8.46702556,26.0779565 8.01931031,25.6302412 8.01931031,25.0779565 L8.01931031,5 C8.01931031,4.44771525 8.46702556,4 9.01931031,4 L20.9806897,4 Z M11.3553628,23.0685502 C10.9411492,23.0685502 10.6053628,23.4043366 10.6053628,23.8185502 C10.6053628,24.2327638 10.9411492,24.5685502 11.3553628,24.5685502 C11.7695763,24.5685502 12.1053628,24.2327638 12.1053628,23.8185502 C12.1053628,23.4043366 11.7695763,23.0685502 11.3553628,23.0685502 Z M15.0038523,23.0685502 C14.5724393,23.0685502 14.2227099,23.4043366 14.2227099,23.8185502 C14.2227099,24.2327638 14.5724393,24.5685502 15.0038523,24.5685502 C15.4352653,24.5685502 15.7849947,24.2327638 15.7849947,23.8185502 C15.7849947,23.4043366 15.4352653,23.0685502 15.0038523,23.0685502 Z M18.6211995,23.0685502 C18.1897865,23.0685502 17.8400571,23.4043366 17.8400571,23.8185502 C17.8400571,24.2327638 18.1897865,24.5685502 18.6211995,24.5685502 C19.0526125,24.5685502 19.4023418,24.2327638 19.4023418,23.8185502 C19.4023418,23.4043366 19.0526125,23.0685502 18.6211995,23.0685502 Z" id="Combined-Shape" fill="#EBE7E7"></path>
            <path d="M3,5.51680372 L6.00693173,5.51680372 C6.55921648,5.51680372 7.00693173,5.96451897 7.00693173,6.51680372 L7.00693173,23.5611527 C7.00693173,24.1134375 6.55921648,24.5611527 6.00693173,24.5611527 L3,24.5611527 C2.44771525,24.5611527 2,24.1134375 2,23.5611527 L2,6.51680372 C2,5.96451897 2.44771525,5.51680372 3,5.51680372 Z" id="Rectangle-8" fill="#EBE7E7"></path>
            <path d="M23.8939592,5.51680372 L26.9008909,5.51680372 C27.4531757,5.51680372 27.9008909,5.96451897 27.9008909,6.51680372 L27.9008909,23.5611527 C27.9008909,24.1134375 27.4531757,24.5611527 26.9008909,24.5611527 L23.8939592,24.5611527 C23.3416745,24.5611527 22.8939592,24.1134375 22.8939592,23.5611527 L22.8939592,6.51680372 C22.8939592,5.96451897 23.3416745,5.51680372 23.8939592,5.51680372 Z" id="Rectangle-8-Copy" fill="#EBE7E7"></path>
        </g>
    </g>
</svg>