<?xml version="1.0" encoding="UTF-8"?>
<svg width="30px" height="30px" viewBox="0 0 30 30" version="1.1" xmlns="http://www.w3.org/2000/svg" xmlns:xlink="http://www.w3.org/1999/xlink">
    <!-- Generator: sketchtool 61.2 (101010) - https://sketch.com -->
    <title>C693E40C-3972-4D35-A5A4-F86305DB9206</title>
    <desc>Created with sketchtool.</desc>
    <g id="Asset-Artboard-Page" stroke="none" stroke-width="1" fill="none" fill-rule="evenodd">
        <g id="menu-/-terms" fill="#EBE7E7">
            <path d="M22.0263143,3.41165799 C23.1308838,3.41165799 24.0263143,4.30708849 24.0263143,5.41165799 L24.0263143,24.411658 C24.0263143,25.5162275 23.1308838,26.411658 22.0263143,26.411658 L7.97368566,26.411658 C6.86911616,26.411658 5.97368566,25.5162275 5.97368566,24.411658 L5.97368566,5.41165799 C5.97368566,4.30708849 6.86911616,3.41165799 7.97368566,3.41165799 L22.0263143,3.41165799 Z M19.9869174,19.5707733 L9.96611213,19.5707733 C9.41382738,19.5707733 8.96611213,20.0184886 8.96611213,20.5707733 C8.96611213,21.1230581 9.41382738,21.5707733 9.96611213,21.5707733 L9.96611213,21.5707733 L19.9869174,21.5707733 C20.5392021,21.5707733 20.9869174,21.1230581 20.9869174,20.5707733 C20.9869174,20.0184886 20.5392021,19.5707733 19.9869174,19.5707733 L19.9869174,19.5707733 Z M19.9869174,15.3135694 L9.96611213,15.3135694 C9.41382738,15.3135694 8.96611213,15.7612846 8.96611213,16.3135694 C8.96611213,16.8658541 9.41382738,17.3135694 9.96611213,17.3135694 L9.96611213,17.3135694 L19.9869174,17.3135694 C20.5392021,17.3135694 20.9869174,16.8658541 20.9869174,16.3135694 C20.9869174,15.7612846 20.5392021,15.3135694 19.9869174,15.3135694 L19.9869174,15.3135694 Z M19.9869174,11.3197675 L9.96611213,11.3197675 C9.41382738,11.3197675 8.96611213,11.7674827 8.96611213,12.3197675 C8.96611213,12.8720522 9.41382738,13.3197675 9.96611213,13.3197675 L9.96611213,13.3197675 L19.9869174,13.3197675 C20.5392021,13.3197675 20.9869174,12.8720522 20.9869174,12.3197675 C20.9869174,11.7674827 20.5392021,11.3197675 19.9869174,11.3197675 L19.9869174,11.3197675 Z M19.9869174,7.37775587 L9.96611213,7.37775587 C9.41382738,7.37775587 8.96611213,7.82547113 8.96611213,8.37775587 C8.96611213,8.93004062 9.41382738,9.37775587 9.96611213,9.37775587 L9.96611213,9.37775587 L19.9869174,9.37775587 C20.5392021,9.37775587 20.9869174,8.93004062 20.9869174,8.37775587 C20.9869174,7.82547113 20.5392021,7.37775587 19.9869174,7.37775587 L19.9869174,7.37775587 Z" id="Combined-Shape"></path>
        </g>
    </g>
</svg>