<?xml version="1.0" encoding="UTF-8"?>
<svg width="30px" height="30px" viewBox="0 0 30 30" version="1.1" xmlns="http://www.w3.org/2000/svg" xmlns:xlink="http://www.w3.org/1999/xlink">
    <!-- Generator: sketchtool 61.2 (101010) - https://sketch.com -->
    <title>F247A45B-BE6E-4EA5-8613-4A88163E94EC</title>
    <desc>Created with sketchtool.</desc>
    <g id="Asset-Artboard-Page" stroke="none" stroke-width="1" fill="none" fill-rule="evenodd">
        <g id="menu-/-users">
            <rect id="Rectangle-7-Copy-4" x="0.0323020741" y="0" width="30" height="30"></rect>
            <g id="noun_users_202250" transform="translate(3.500000, 3.500000)" fill="#EBE7E7" fill-rule="nonzero">
                <path d="M22.9747054,16.3881053 L22.9747054,16.7880126 C22.9747054,18.279381 21.7656245,19.4884619 20.2742561,19.4884619 L18.5886253,19.4884619 L18.5886253,19.2517046 C18.6020314,19.0910841 18.6169552,18.9322341 18.6169552,18.7564368 C18.6169552,15.9027023 16.9323362,13.472652 14.5622341,11.9478947 C16.4540157,11.8740346 18.1391406,11.0006127 19.2819497,9.64735271 C21.4494423,11.0752317 23,13.3611029 23,15.9464619 C23,16.1032883 22.9865939,16.2449379 22.9747054,16.3881053 Z M15.0595255,10.8071092 C15.2879356,10.1428735 15.4179497,9.43310762 15.4179497,8.6912176 C15.4179497,5.44516418 13.0402592,2.76166222 9.93307306,2.26816496 C10.9175381,0.917181461 12.5075554,0.0359183032 14.3070118,0.0359183032 C17.2975899,0.0359183032 19.7218225,2.46015082 19.7218225,5.45047604 C19.7218225,8.18507306 17.6929442,10.4398319 15.0595255,10.8071092 Z M14.3209238,8.6912176 C14.3209238,11.6817958 11.8966913,14.1060283 8.90611312,14.1060283 C5.9157879,14.1060283 3.49130244,11.6817958 3.49130244,8.6912176 C3.49130244,5.70063943 5.91553496,3.27665986 8.90611312,3.27665986 C11.8966913,3.27665986 14.3209238,5.70063943 14.3209238,8.6912176 Z M8.90611312,15.2030542 C10.8970495,15.2030542 12.6765232,14.3071202 13.8709332,12.8994768 C16.0293197,14.3278617 17.5720361,16.608674 17.5720361,19.1872035 C17.5720361,19.3440299 17.55863,19.4856795 17.5467416,19.6288468 L17.5467416,20.0287541 C17.5467416,21.5201225 16.3376606,22.7292035 14.8462922,22.7292035 L2.93886881,22.7292035 C1.44750039,22.7292035 0.238419482,21.5201225 0.238419482,20.0287541 L0.238419482,19.6230291 L0.23487824,19.6230291 L0.23487824,19.184674 L0.249549097,19.184674 C0.25056088,16.6094328 1.79024195,14.331403 3.9445813,12.903271 C5.1392443,14.3086379 6.91720031,15.2030542 8.90611312,15.2030542 Z" id="Shape"></path>
            </g>
        </g>
    </g>
</svg>