<?xml version="1.0" encoding="UTF-8"?>
<svg width="16px" height="16px" viewBox="0 0 16 16" version="1.1" xmlns="http://www.w3.org/2000/svg" xmlns:xlink="http://www.w3.org/1999/xlink">
    <!-- Generator: sketchtool 61.2 (101010) - https://sketch.com -->
    <title>587D3489-3F8B-4B49-A831-AABCA5436C7C</title>
    <desc>Created with sketchtool.</desc>
    <defs>
        <polygon id="path-1" points="6.84336573e-05 0 15.0287586 0 15.0287586 15.176748 6.84336573e-05 15.176748"></polygon>
    </defs>
    <g id="Asset-Artboard-Page" stroke="none" stroke-width="1" fill="none" fill-rule="evenodd">
        <g id="icon-/-carrito">
            <g id="Group-3" transform="translate(0.320000, 0.320000)">
                <mask id="mask-2" fill="white">
                    <use xlink:href="#path-1"></use>
                </mask>
                <g id="Clip-2"></g>
                <path d="M6.08683422,9.31590659 L11.1482882,9.31590659 C12.5146604,9.31590659 13.29201,8.54857444 13.7214222,7.17953099 L15.0256866,2.65901629 C15.0430501,2.59023021 14.9909596,2.52411543 14.9208379,2.52411543 L5.32618029,2.52411543 C5.12115768,2.52411543 4.43396462,0.837186766 3.00548459,0.246160691 C2.98611763,0.236811126 2.96007241,0.228797213 2.93870198,0.219447648 C2.84186719,0.182717214 2.74102545,0.151329388 2.63684458,0.125284171 C2.56872632,0.107252867 2.50461501,0.0898893895 2.42380805,0.0738615637 C2.41712979,0.0725259116 2.41178718,0.0725259116 2.40577675,0.0711902594 C2.40377327,0.0711902594 2.40243762,0.0705224334 2.40110196,0.0705224334 C0.889143671,-0.21797843 0.331508877,0.449847643 0.150528003,0.788435462 C0.149192351,0.790438941 0.148524525,0.792442419 0.147188873,0.794445897 C0.0924271324,0.898626764 0.0730601755,0.971419807 0.0730601755,0.971419807 L0.0784027843,0.972087633 C0.069721045,0.998132849 0.0570323491,1.01950328 0.0496862619,1.04621633 C-0.151997221,1.78950675 0.294110615,2.18218848 0.793644539,2.26499891 C1.40003064,2.36584065 1.73194021,1.57045979 2.77975936,2.15681109 C3.32136633,2.55016064 3.92975591,3.36958324 4.06732809,5.09457798 C4.30373853,8.06306488 3.00615241,9.05679008 3.00615241,9.05679008 C4.06198548,9.97037615 5.2754255,12.8573883 5.64807247,13.3355517 C5.55524464,13.5105222 5.4978116,13.7075309 5.4978116,13.9205674 C5.4978116,14.6144387 6.06012117,15.1767482 6.75466032,15.1767482 C7.44853164,15.1767482 8.01150904,14.6144387 8.01150904,13.9205674 C8.01150904,13.4951622 7.79914034,13.1211796 7.47658033,12.8934509 C8.07562035,12.8887761 9.39991951,12.885437 10.5552587,12.8841013 C10.2253526,13.1104943 10.0089769,13.4898196 10.0089769,13.9205674 C10.0089769,14.6144387 10.5712865,15.1767482 11.2651578,15.1767482 C11.959697,15.1767482 12.5220065,14.6144387 12.5220065,13.9205674 C12.5220065,13.4884839 12.3042952,13.1084909 11.9730535,12.8820978 C12.3530465,12.88143 12.6021457,12.88143 12.6021457,12.88143 L12.60081,12.8734161 C13.203857,12.8600596 13.6326013,12.1301257 13.6326013,11.6559692 C13.6326013,11.1591066 13.4235718,11.1070161 12.8906465,11.1577709 C12.4118152,11.2031831 12.4298465,11.2425848 10.8531091,11.3420909 C10.304156,11.3621257 9.55485516,11.3768179 8.53508471,11.3768179 C6.8054151,11.3768179 6.04876813,10.7864596 5.71485508,10.2375066 C5.43436812,9.32325268 6.08683422,9.31590659 6.08683422,9.31590659" id="Fill-1" fill="#FAF5F6" mask="url(#mask-2)"></path>
            </g>
        </g>
    </g>
</svg>