<?xml version="1.0" encoding="UTF-8"?>
<svg width="17px" height="17px" viewBox="0 0 17 17" version="1.1" xmlns="http://www.w3.org/2000/svg" xmlns:xlink="http://www.w3.org/1999/xlink">
    <!-- Generator: sketchtool 61.2 (101010) - https://sketch.com -->
    <title>4890610F-5B82-46A3-BD05-FF10A3996834</title>
    <desc>Created with sketchtool.</desc>
    <g id="Asset-Artboard-Page" stroke="none" stroke-width="1" fill="none" fill-rule="evenodd">
        <g id="icon-/-trash" fill="#AB162B">
            <g id="Group-7" transform="translate(2.010515, 0.228136)">
                <path d="M11.9192507,3.59957117 L6.57844871,3.59957117 L6.42313351,3.59957117 L1.08233152,3.59957117 C1.08233152,3.59957117 1.35328284,4.60628566 1.47005265,5.4010006 C1.76367773,7.39629059 1.47005265,13.9818812 1.47005265,13.9818812 C1.47005265,15.0078684 2.08904605,16.601833 4.25552294,16.601833 L6.42313351,16.601833 L6.57844871,16.601833 L8.74719297,16.601833 C10.9136699,16.601833 11.5315296,15.0078684 11.5315296,13.9818812 C11.5315296,13.9818812 11.2379045,7.39629059 11.5315296,5.4010006 C11.6494331,4.60628566 11.9192507,3.59957117 11.9192507,3.59957117" id="Fill-1"></path>
                <path d="M4.71965468,1.33661761 L5.06996411,0.718757905 L7.96766932,0.718757905 L8.31797876,1.33661761 L4.71965468,1.33661761 Z M12.0727515,1.30487427 L9.75095951,1.30487427 L8.82246945,0 L4.17775179,0 L3.25039542,1.30487427 L0.927469739,1.30487427 C0.416176679,1.30487427 0.000113368747,1.72093757 0.000113368747,2.23223061 L0.000113368747,2.78660378 L13.0023752,2.78660378 L13.0023752,2.23223061 C13.0023752,1.72093757 12.5851782,1.30487427 12.0727515,1.30487427 L12.0727515,1.30487427 Z" id="Fill-4"></path>
            </g>
        </g>
    </g>
</svg>